# xmcd
#
# Track frame offsets: 
#        150
#        1224
#        12958
#        15315
#        18420
#        19656
#        20510
#        21335
#        21852
#        22303
#        22753
#        23598
#        34883
#        35915
#        46550
#        57366
#        69058
#        72470
#        83086
#        92057
#        104362
#        113067
#        113733
#        115225
#        116692
#        129356
#        130601
#        142307
#        143799
#        153804
#        154648
#        165406
#        165856
#        175959
#        176709
#        189592
#        190554
#        191304
#        203031
#        214985
#        223606
#        235430
#        236543
#        248454
#        252467
#        264444
#        274272
#        279761
#        288881
#        289854
#        290953
#        291429
#        292153
#        303068
#        304710
#        313837
#        322072
#
# Disc length: 4412 seconds
#
# Revision: 0
# Processed by: cddbd v1.5.2PL0 Copyright (c) Steve Scherf et al.
# Submitted via: ExactAudioCopy v0.95b3
#
DISCID=24113a39
DTITLE=The Beatles  - Chronology 005-early 1964  FLAC
DYEAR=1900
DGENRE=
TTITLE0=If I Fell take 1 (demo)
TTITLE1=If I Fell take 2 (demo)
TTITLE2=If I Fell take 3 (demo)
TTITLE3=If I Fell take 4 (demo)
TTITLE4=If I Fell take 5 (demo)
TTITLE5=Komm Gib Mir Deine Hand take 1
TTITLE6=Komm Gib Mir Deine Hand take 2
TTITLE7=Komm Gib Mir Deine Hand take 7
TTITLE8=Komm Gib Mir Deine Hand take 9
TTITLE9=Komm Gib Mir Deine Hand take 10
TTITLE10=Komm Gib Mir Deine Hand take unknown
TTITLE11=Komm Gib Mir Deine Hand (stereo)
TTITLE12=Sie Liebt Dich take unknown
TTITLE13=Sie Liebt Dich (stereo)
TTITLE14=Can't Buy Me Love take 1
TTITLE15=Can't Buy Me Love take 2
TTITLE16=Can't Buy Me Love take 3
TTITLE17=Can't Buy Me Love take 4
TTITLE18=One and One Is Two (demo)
TTITLE19=You Can't Do That take 6
TTITLE20=And I Love Her take 2
TTITLE21=I Should Have Known Better take 2 fragment
TTITLE22=I Should Have Known Better take 8
TTITLE23=I Should Have Known Better take 11
TTITLE24=I Should Have Known Better RS1
TTITLE25=And I Love Her take 11
TTITLE26=And I Love Her RS1
TTITLE27=Tell Me Why take 4
TTITLE28=Tell Me Why RS1
TTITLE29=If I Fell (tk 4 fragment)
TTITLE30=If I Fell RS1
TTITLE31=Cause it's our song anyroad innit
TTITLE32=Call Your Name (US mono)
TTITLE33=Train Music
TTITLE34=A Hard Day's Night take 1
TTITLE35=A Hard Day's Night take 2
TTITLE36=A Hard Day's Night take 3
TTITLE37=A Hard Day's Night take 4
TTITLE38=A Hard Day's Night take 5
TTITLE39=A Hard Day's Night take 6
TTITLE40=A Hard Day's Night take 7
TTITLE41=A Hard Day's Night take 8
TTITLE42=A Hard Day's Night take 9
TTITLE43=A Hard Day's Night solo
TTITLE44=A Hard Day's Night RS1
TTITLE45=I'll Cry Instead (US mono singles collection)
TTITLE46=I'll Be Back take 2
TTITLE47=I'll Be Back take 3
TTITLE48=I'll Be Back take 12
TTITLE49=I'll Be Back take 13
TTITLE50=I'll Be Back take 14
TTITLE51=I'll Be Back take 15
TTITLE52=I'll Be Back RS1
TTITLE53=Jimmy Nichol rehearsal
TTITLE54=You Know What To Do (demo)
TTITLE55=No Reply (demo)
TTITLE56=Dunedin interview clip
EXTD=
EXTT0=
EXTT1=
EXTT2=
EXTT3=
EXTT4=
EXTT5=
EXTT6=
EXTT7=
EXTT8=
EXTT9=
EXTT10=
EXTT11=
EXTT12=
EXTT13=
EXTT14=
EXTT15=
EXTT16=
EXTT17=
EXTT18=
EXTT19=
EXTT20=
EXTT21=
EXTT22=
EXTT23=
EXTT24=
EXTT25=
EXTT26=
EXTT27=
EXTT28=
EXTT29=
EXTT30=
EXTT31=
EXTT32=
EXTT33=
EXTT34=
EXTT35=
EXTT36=
EXTT37=
EXTT38=
EXTT39=
EXTT40=
EXTT41=
EXTT42=
EXTT43=
EXTT44=
EXTT45=
EXTT46=
EXTT47=
EXTT48=
EXTT49=
EXTT50=
EXTT51=
EXTT52=
EXTT53=
EXTT54=
EXTT55=
EXTT56=
PLAYORDER=
